<svg width="165pt" height="119pt" viewBox="0 0 165 119" xmlns="http://www.w3.org/2000/svg"><path fill="#fff" d="M0 0h165v119H0V0z"/><path fill="#f4a929" d="M5.51 11.87c2.02-1.04 4.33-.62 6.5-.66 4.97.13 9.95-.12 14.92.1 2.24-.01 4.16 1.85 4.47 4.02 1.56 7.56 2.99 15.15 4.52 22.73-2.53-8.88-9.21-16.13-17.06-20.74-4.15-2.49-8.78-3.94-13.35-5.45z"/><path fill="#1b4da2" d="M48.75 11.23c4.31.05 8.61.03 12.91 0-6.54 15.63-12.64 31.44-19.32 47.01-4.2-.13-8.4-.07-12.6-.07-3.72-13.59-7.19-27.25-10.88-40.85 7.85 4.61 14.53 11.86 17.06 20.74.38 1.72.65 3.48.98 5.22 3.92-10.69 7.89-21.37 11.85-32.05zM66.49 11.21c4.05.03 8.1.03 12.15 0-2.49 15.66-5.11 31.3-7.54 46.97-4.03.01-8.06.01-12.1 0 2.32-15.68 5.05-31.3 7.49-46.97zM90.16 14.16c7.26-4.77 16.75-4.63 24.78-1.99-.37 3.47-.95 6.91-1.55 10.34-4.27-2.05-9.25-2.96-13.89-1.77-2.19.52-4.35 3.24-2.53 5.28 3.74 3.83 9.63 4.7 13.15 8.87 4.08 3.99 3.93 10.71 1.15 15.38-2.94 4.93-8.6 7.51-14.11 8.25-6.23.65-12.72.26-18.56-2.15.62-3.5 1.14-7.02 1.77-10.52 5.05 2.61 10.91 3.92 16.54 2.67 1.91-.64 3.88-2.21 3.71-4.45-.63-2.67-3.42-3.81-5.59-5.02-4.21-2.07-8.74-4.61-10.63-9.16-2.35-5.75.76-12.48 5.76-15.73zM129.99 16.02c.81-2.16 2.41-4.51 4.94-4.64 3.72-.26 7.46-.04 11.18-.11 3.33 15.64 6.55 31.29 9.83 46.93-3.74.01-7.48.01-11.22.02-.53-2.35-1.03-4.71-1.51-7.08-5.19 0-10.37.01-15.55-.02-.83 2.37-1.69 4.74-2.58 7.09-4.24 0-8.48 0-12.72.01 5.86-14.07 11.78-28.12 17.63-42.2z"/><path fill="#fff" d="M131.19 41.46c2.26-5.81 4.11-11.79 6.64-17.49.75 5.9 2.22 11.68 3.43 17.5-3.36 0-6.71 0-10.07-.01z"/><path fill="#161314" d="M83.22 89.71c4.52.08 10.34-.68 13.22 3.69 3.04 5.45.79 13.38-4.86 16.21-3.62 1.93-7.88 1.1-11.8 1.28 1.2-7.05 2.13-14.15 3.44-21.18z"/><path fill="#181415" d="M103.36 89.75c3.57 0 7.14-.01 10.71.02-.15.63-.44 1.88-.59 2.51-2.6.13-5.2.04-7.8.06-.25 2.11-.58 4.21-1.02 6.28 2.03.01 4.06.01 6.1.02 0 .67-.02 2.01-.02 2.68-2.13-.01-4.25-.02-6.38-.04-.44 2.41-.85 4.82-1.24 7.24 2.76.04 5.52.03 8.29.04-.13.54-.38 1.61-.51 2.15-3.61.4-7.26.09-10.89.18 1.06-7.06 2.15-14.11 3.35-21.14z"/><path fill="#191617" d="M114.35 110.94c1.17-7.06 2.25-14.14 3.37-21.21 3.04.13 6.38-.48 9.12 1.18 3.18 2.51 1.62 7.6-1.85 9.02 3.89 1.59 3.81 7.36.53 9.51-3.25 2.26-7.47 1.2-11.17 1.5z"/><path fill="#181415" d="M134.07 89.87l2.89-.2c-1.14 7.1-2.17 14.21-3.41 21.29l-2.81-.08c1.28-6.97 2.26-14 3.33-21.01z"/><path fill="#171314" d="M140.64 89.82c5.03-.18 10.06-.01 15.1-.07 0 .65 0 1.95.01 2.6-2.14-.01-4.28-.02-6.42-.04-1.2 6.15-1.87 12.39-3.06 18.53-.69.05-2.06.14-2.74.18.97-6.23 1.88-12.47 2.96-18.68-2.14 0-4.28-.01-6.42-.02.14-.63.43-1.88.57-2.5z"/><path fill="#fff" d="M85.58 92.26c3.15-.04 7.15-.15 8.72 3.22 1.23 4 .43 9.07-3.25 11.55-2.34 1.77-5.4 1.52-8.16 1.57 1-5.43 1.66-10.91 2.69-16.34zM119.96 92.23c2.22-.09 5.79-.39 5.9 2.74-.04 3.51-4.07 3.94-6.74 3.9.27-2.22.57-4.42.84-6.64zM118.69 101.11c2.05.22 5.04-.42 6.11 1.87 1.13 1.8.11 4.32-1.77 5.16-1.78.69-3.74.52-5.61.65.46-2.56.92-5.11 1.27-7.68z"/></svg>